<svg width="200" height="200" viewBox="0 0 200 200" fill="none" xmlns="http://www.w3.org/2000/svg">
<path d="M148.636 105.609L150.389 97.5476C150.506 96.8466 154.011 80.3727 154.478 73.2456C155.296 64.1324 153.31 51.9814 140.691 46.2564C140.224 43.5692 138.588 36.9095 131.812 33.2876C130.41 32.4697 129.008 31.6519 127.606 30.7172C121.764 27.0953 115.922 23.2397 100.383 23.2397C100.266 23.2397 100.149 23.3565 100.032 23.3565C99.9156 23.3565 99.7987 23.2397 99.6819 23.2397C84.0258 23.1228 78.0672 26.9784 72.3422 30.6003C70.9401 31.535 69.6549 32.3529 68.1361 33.1707C61.3596 36.7927 59.7239 43.4524 59.2565 46.1396C46.5213 52.0982 44.7688 64.1324 45.4698 73.3625C46.054 80.3727 49.4422 96.8466 49.5591 97.6644L51.3116 105.726C47.5729 102.922 44.7688 101.987 42.8994 103.039C40.4458 104.441 41.03 108.297 41.03 108.764V108.881C41.1469 109.582 45.353 126.757 47.9234 132.832C50.2601 138.44 56.3356 139.959 58.5555 140.31L62.5279 158.303C62.6448 158.77 62.8784 159.12 63.3458 159.471L87.0636 176.412C87.4141 176.646 87.7646 176.763 88.2319 176.763C88.1151 176.763 88.3488 176.763 88.2319 176.763C88.4321 176.763 111.95 176.763 112.067 176.763C112.534 176.763 112.884 176.646 113.235 176.412L136.719 159.471C137.186 159.237 137.42 158.77 137.537 158.303L141.393 140.076C143.612 139.609 149.688 138.09 152.025 132.599C154.595 126.523 158.684 109.465 158.918 108.647V108.53C159.035 108.063 159.502 104.207 157.049 102.805C155.179 101.754 152.375 102.688 148.636 105.609Z" fill="white"/>
</svg>
